<svg t="1596614530642" class="icon" viewBox="0 0 1024 1024" version="1.1" xmlns="http://www.w3.org/2000/svg" p-id="898" width="32" height="32"><path d="M344.8 780.5c13 0 25.3 2.4 36.7 7.1 11.7 4.7 21.7 11.4 30.6 19.9 8.9 8.5 15.6 18.6 20.3 30.2 4.7 11.6 7.1 23.9 7.1 36.7 0 12.8-2.4 25.1-7.1 36.7-4.7 11.6-11.7 21.7-20.3 30.2-8.9 8.5-19 15.2-30.6 20.3-11.7 5.1-23.9 7.7-36.7 7.7-13.6 0-26.1-2.6-37.3-7.7-11.3-5.1-21.3-11.8-30.2-20.3-8.9-8.5-15.6-18.6-20.3-30.2-4.7-11.7-7.1-23.9-7.1-36.7 0-12.8 2.4-25.3 7.1-36.7 4.7-11.7 11.7-21.5 20.3-30.2 8.9-8.5 19-15.2 30.2-19.9 11.3-4.7 23.7-7.1 37.3-7.1z m424.5 2c13 0 25.3 2.4 37.3 7.1 11.8 4.7 22.1 11.5 30.6 19.9 8.5 8.5 15.4 18.6 20.3 30.2 5.1 11.7 7.7 23.9 7.7 36.7 0 12.8-2.6 25.1-7.7 36.7-5.1 11.7-11.8 21.7-20.3 30-8.5 8.5-18.8 15.2-30.6 20.3-11.8 5.1-24.3 7.7-37.3 7.7-13 0-25.3-2.6-36.7-7.7-11.7-5.1-21.5-11.8-30.2-20.3-8.5-8.5-15.4-18.6-20.3-30-5.1-11.4-7.7-23.7-7.7-36.7 0-13 2.6-25.3 7.7-36.7 5.1-11.5 11.8-21.5 20.3-30.2 8.5-8.5 18.6-15.2 30.2-19.9 11.6-4.7 23.9-7.1 36.7-7.1z m171.6-579.7c19 0 33.8 2.6 44.4 7.7 10.5 5.1 18 11.5 22.5 19s6.5 15.4 6.1 23.9c-0.4 8.5-1.6 15.8-3.6 21.9-2 6.1-6.3 18.8-12.8 37.7-6.5 19-13.8 39.9-21.9 62.8-8.1 22.9-16.2 45.4-23.9 67.9-7.9 22.5-13.8 40.1-17.8 53.1-8.9 27.2-20.1 46-33.8 56.7-13.6 10.5-30.2 15.8-50 15.8H314.2l15.4 91.8H844c32.6 0 49 14 49 41.9 0 13.6-3.2 25.3-9.7 35.1s-19.2 14.8-38.3 14.8H310.1c-13.6 0-25.1-3-34.2-9.1-9.3-6.1-16.8-14-22.9-23.9-6.1-9.9-11.1-20.5-14.8-32.2-3.8-11.6-6.7-22.5-8.7-32.6-0.6-4.1-2.6-14-5.5-29.6-3.2-15.6-6.9-35.1-11.3-58.6-4.3-23.5-9.3-49.8-14.8-78.6-5.5-28.8-10.9-58.1-16.4-87.3-13-68.7-27.6-145.3-43.8-229.6H61.1c-10.3 0-18.8-2.6-25.5-7.7-6.9-5.3-12.4-11.5-17-18.6-4.5-7.1-7.5-14.8-9.1-22.9C7.8 114 7 106.7 7 99.7 7 86.1 11.5 74.9 20.8 66c9.3-8.9 21.5-13.2 37.3-13.2h103.1c13.6 0 24.5 2 32.6 6.1 8.1 4.1 14.6 9.3 19.3 15.4 4.7 6.1 8.1 12.6 10.3 19.3 2 6.9 3.8 12.6 5.1 17.4 1.4 5.5 2.8 13 4.1 22.9 1.4 9.9 2.8 19.9 4.1 30 2 12.2 4.2 25.3 6.1 38.9h698.1z m0 0" fill="#999999" p-id="899"></path></svg>