<svg id="图层_1" data-name="图层 1" xmlns="http://www.w3.org/2000/svg" viewBox="0 0 48 48"><defs><style>.cls-1{fill:#a0a1ad;}</style></defs><title>销售中心</title><path class="cls-1" d="M32.52,4a2.83,2.83,0,0,1,2.87,2.78V16a6.27,6.27,0,0,0-.75,0c-4.48,0-8.1,3.24-8.1,7.56a7.74,7.74,0,0,0,3.17,6.19c.06,1.27-.06,3.77-1.89,4.69H25.28a3.08,3.08,0,0,0-3.13,3v6H6.9A2.83,2.83,0,0,1,4,40.67V6.78A2.83,2.83,0,0,1,6.9,4ZM17,24H10.54A1.36,1.36,0,0,0,9.2,25.3a1.32,1.32,0,0,0,1.34,1.33H17A1.33,1.33,0,0,0,18,24.36,1.3,1.3,0,0,0,17,24Zm3.5-6.66h-10a1.32,1.32,0,0,0-.94.38,1.29,1.29,0,0,0,.94,2.23h10a1.32,1.32,0,0,0,1.34-1.3,1.3,1.3,0,0,0-.4-.93,1.32,1.32,0,0,0-.94-.38Zm5.38-6.68H10.54A1.31,1.31,0,0,0,9.6,11a1.36,1.36,0,0,0-.4.93,1.32,1.32,0,0,0,1.34,1.3H25.91a1.3,1.3,0,1,0,0-2.6Zm0,0"/><path class="cls-1" d="M35.12,19.4a4.88,4.88,0,0,1,4.43,3.67,4.77,4.77,0,0,1-2,5L37,28.4,37,29c-.21,1.59-.57,6.89,3.86,8.63l.23.08H43.4a.56.56,0,0,1,.57.55v5.18c0,.55-.21.61-.47.61H26.18a.56.56,0,0,1-.56-.55V38.21a.56.56,0,0,1,.57-.55h2.6l.21-.09c4.57-1.79,4-7.38,3.88-8.48l-.09-.58-.51-.28a4.71,4.71,0,0,1,2.48-8.83Zm0,0"/></svg>