<?xml version="1.0" standalone="no"?><!DOCTYPE svg PUBLIC "-//W3C//DTD SVG 1.1//EN" "http://www.w3.org/Graphics/SVG/1.1/DTD/svg11.dtd"><svg t="1690188950878" class="icon" viewBox="0 0 1024 1024" version="1.1" xmlns="http://www.w3.org/2000/svg" p-id="2243" width="20" height="20" xmlns:xlink="http://www.w3.org/1999/xlink"><path d="M296.106667 789.333333l38.826666-21.333333 148.053334 92.586667v-227.84l-32-14.08-148.48-92.586667v185.173333l-32 21.333334-122.453334-78.506667L0 746.666667v184.746666L148.053333 1024l148.053334-92.586667z m450.986666-56.746666l-32.426666-21.333334v-185.173333l-173.653334 106.666667V853.333333l148.053334-92.586666 38.826666 21.333333v142.506667l148.053334 92.16L1024 924.586667v-185.173334l-148.053333-92.16c-6.4 6.826667-128.853333 85.333333-128.853334 85.333334zM334.933333 469.333333l173.653334 113.92 32.426666-21.333333L689.066667 469.333333l-148.053334-92.586666v-21.333334l116.053334-70.826666V99.413333L508.586667 0 366.933333 99.413333v185.173334l116.053334 70.826666v21.333334z" fill="#ffffff" p-id="2244" data-spm-anchor-id="a313x.7781069.0.i8"></path></svg>